<svg xmlns="http://www.w3.org/2000/svg" viewBox="0 0 60 60">
  <path fill="#ffcd69" d="M30,46.85C26.02,45.622,21.987,45,18,45c-3.208,0-6.444,0.402-9.66,1.199C6.486,35.414,6.556,25.813,8.549,16.352C11.7,15.454,14.872,15,18,15c3.658,0,7.376,0.621,11.051,1.846C29.359,16.949,29.68,17,30,17s0.641-0.051,0.949-0.154C34.624,15.621,38.342,15,42,15c3.128,0,6.3,0.454,9.451,1.352c1.993,9.462,2.063,19.062,0.209,29.848C48.444,45.402,45.208,45,42,45C38.013,45,33.98,45.622,30,46.85z"/>
  <path fill="#ffa96b" d="M30,51c-0.106,0-0.213-0.017-0.316-0.051c-7.762-2.586-15.612-2.585-23.368,0c-0.271,0.09-0.569,0.061-0.817-0.083c-0.248-0.143-0.422-0.386-0.479-0.667c-1.367-6.756-2.032-12.915-2.032-18.827c0-6.002,0.667-11.759,2.038-17.6c0.08-0.338,0.328-0.61,0.657-0.72c3.419-1.14,6.888-1.812,10.31-1.997c0.542-0.036,1.022,0.393,1.053,0.944c0.03,0.552-0.393,1.023-0.944,1.053c-3.067,0.167-6.178,0.746-9.255,1.725c-1.25,5.501-1.859,10.937-1.859,16.595c0,5.458,0.582,11.14,1.776,17.336c7.383-2.244,14.842-2.269,22.236-0.071V14.728c-2.995-0.939-6.023-1.501-9.011-1.671c-0.551-0.031-0.973-0.504-0.942-1.055c0.032-0.551,0.518-0.962,1.055-0.942c3.393,0.193,6.829,0.863,10.214,1.992C30.725,13.188,31,13.57,31,14v36c0,0.321-0.154,0.623-0.415,0.811C30.412,50.936,30.207,51,30,51z"/>
  <path fill="#ffa96b" d="M30,51c-0.207,0-0.412-0.064-0.585-0.189C29.154,50.623,29,50.321,29,50V14c0-0.431,0.275-0.812,0.684-0.949c8.173-2.724,16.46-2.724,24.633,0c0.329,0.11,0.578,0.382,0.657,0.72c2.703,11.511,2.706,23.086,0.006,36.427c-0.057,0.281-0.231,0.524-0.479,0.667c-0.249,0.144-0.546,0.173-0.817,0.083c-7.752-2.584-15.615-2.584-23.367,0C30.213,50.983,30.106,51,30,51z M42,47.008c3.752,0,7.505,0.566,11.236,1.699c2.381-12.378,2.354-23.205-0.083-33.932C45.8,12.438,38.354,12.422,31,14.728v33.909C34.653,47.551,38.327,47.008,42,47.008z"/>
  <path fill="#ff6684" d="M36.003,22c3.942-0.946,8.052-0.946,11.994,0"/>
  <path fill="#ffa96b" d="M47.998,23c-0.078,0-0.156-0.009-0.234-0.028c-3.771-0.904-7.756-0.904-11.526,0c-0.535,0.13-1.076-0.201-1.206-0.739c-0.129-0.537,0.202-1.077,0.739-1.206c4.075-0.979,8.385-0.979,12.46,0c0.537,0.129,0.868,0.668,0.739,1.206C48.859,22.691,48.449,23,47.998,23z"/>
  <path fill="#ff6684" d="M36.003,30c3.942-0.946,8.052-0.946,11.994,0"/>
  <path fill="#ffa96b" d="M47.998,31c-0.078,0-0.156-0.009-0.234-0.028c-3.771-0.904-7.756-0.904-11.526,0c-0.535,0.129-1.076-0.201-1.206-0.739c-0.129-0.537,0.202-1.077,0.739-1.206c4.075-0.979,8.385-0.979,12.46,0c0.537,0.129,0.868,0.668,0.739,1.206C48.859,30.691,48.449,31,47.998,31z"/>
  <path fill="#ff6684" d="M36.003,38c3.942-0.946,8.052-0.946,11.994,0"/>
  <path fill="#ffa96b" d="M47.998,39c-0.078,0-0.156-0.009-0.234-0.028c-3.771-0.904-7.756-0.904-11.526,0c-0.535,0.132-1.076-0.202-1.206-0.739c-0.129-0.537,0.202-1.077,0.739-1.206c4.075-0.979,8.385-0.979,12.46,0c0.537,0.129,0.868,0.668,0.739,1.206C48.859,38.691,48.449,39,47.998,39z"/>
  <path fill="#ff6684" d="M12.003,22c3.942-0.946,8.052-0.946,11.994,0"/>
  <path fill="#ffa96b" d="M23.998,23c-0.078,0-0.156-0.009-0.234-0.028c-3.771-0.904-7.756-0.904-11.526,0c-0.537,0.13-1.077-0.201-1.206-0.739c-0.129-0.537,0.202-1.077,0.739-1.206c4.075-0.979,8.385-0.979,12.46,0c0.537,0.129,0.868,0.668,0.739,1.206C24.859,22.691,24.449,23,23.998,23z"/>
  <path fill="#ff6684" d="M12.003,30c3.942-0.946,8.052-0.946,11.994,0"/>
  <path fill="#ffa96b" d="M23.998,31c-0.078,0-0.156-0.009-0.234-0.028c-3.771-0.904-7.756-0.904-11.526,0c-0.537,0.129-1.077-0.201-1.206-0.739c-0.129-0.537,0.202-1.077,0.739-1.206c4.075-0.979,8.385-0.979,12.46,0c0.537,0.129,0.868,0.668,0.739,1.206C24.859,30.691,24.449,31,23.998,31z"/>
  <path fill="#ff6684" d="M12.003,38c3.942-0.946,8.052-0.946,11.994,0"/>
  <path fill="#ffa96b" d="M23.998,39c-0.078,0-0.156-0.009-0.234-0.028c-3.771-0.904-7.756-0.904-11.526,0c-0.537,0.132-1.077-0.202-1.206-0.739s0.202-1.077,0.739-1.206c4.075-0.979,8.385-0.979,12.46,0c0.537,0.129,0.868,0.668,0.739,1.206C24.859,38.691,24.449,39,23.998,39z"/>
</svg>